<?xml version="1.0" encoding="utf-8"?>
<!-- Generator: Adobe Illustrator 16.0.3, SVG Export Plug-In . SVG Version: 6.00 Build 0)  -->
<!DOCTYPE svg PUBLIC "-//W3C//DTD SVG 1.1//EN" "http://www.w3.org/Graphics/SVG/1.1/DTD/svg11.dtd">
<svg version="1.1" id="Logo_FIXED" xmlns="http://www.w3.org/2000/svg" xmlns:xlink="http://www.w3.org/1999/xlink" x="0px" y="0px"
	 width="163px" height="133px" viewBox="0 0 163 133" style="enable-background:new 0 0 163 133;" xml:space="preserve">
<style type="text/css">
<![CDATA[
	.st0{fill:#8F92B6;}
]]>
</style>
<title>Twitter_Logo_Blue</title>
<path class="st0" d="M51.317,131.009c60.377,0,93.402-50.023,93.402-93.402c0-1.421,0-2.835-0.096-4.243
	c6.424-4.647,11.97-10.401,16.377-16.992c-5.991,2.655-12.347,4.396-18.854,5.165c6.853-4.103,11.981-10.555,14.433-18.157
	c-6.444,3.824-13.494,6.519-20.846,7.968C123.301-1.872,102.506-2.51,89.287,9.922c-8.525,8.018-12.143,19.965-9.497,31.365
	c-26.395-1.323-50.986-13.79-67.654-34.297C3.423,21.988,7.874,41.177,22.299,50.81c-5.224-0.155-10.334-1.564-14.899-4.109
	c0,0.134,0,0.275,0,0.416c0.004,15.626,11.02,29.084,26.336,32.179c-4.833,1.317-9.903,1.511-14.822,0.563
	c4.3,13.372,16.625,22.533,30.669,22.797c-11.624,9.135-25.984,14.095-40.768,14.08c-2.612-0.006-5.221-0.164-7.814-0.475
	c15.012,9.635,32.479,14.745,50.317,14.721"/>
</svg>
